<svg xmlns="http://www.w3.org/2000/svg" viewBox="0 0 800 600">
  <!-- Styles -->
  <defs>
    <style>
      .box { fill: #f0f8ff; stroke: #4682b4; stroke-width: 2; rx: 10; ry: 10; }
      .decision { fill: #fffacd; stroke: #daa520; stroke-width: 2; }
      .start-end { fill: #e6ffe6; stroke: #2e8b57; stroke-width: 2; rx: 20; ry: 20; }
      .arrow { stroke: #333; stroke-width: 2; fill: none; marker-end: url(#arrowhead); }
      .text { font-family: Arial, sans-serif; font-size: 14px; fill: #333; text-anchor: middle; }
      .small-text { font-family: Arial, sans-serif; font-size: 12px; fill: #555; text-anchor: middle; }
      .comment { font-family: Arial, sans-serif; font-size: 12px; fill: #777; font-style: italic; text-anchor: middle; }
    </style>
    <marker id="arrowhead" markerWidth="10" markerHeight="7" refX="9" refY="3.5" orient="auto">
      <polygon points="0 0, 10 3.5, 0 7" fill="#333" />
    </marker>
  </defs>
  
  <!-- Flowchart elements -->
  <!-- Start node -->
  <rect x="350" y="30" width="100" height="50" class="start-end" />
  <text x="400" y="60" class="text">Start</text>
  
  <!-- Initialize Map -->
  <rect x="325" y="110" width="150" height="50" class="box" />
  <text x="400" y="140" class="text">Initialize Map</text>
  
  <!-- Process nums1 -->
  <rect x="325" y="190" width="150" height="50" class="box" />
  <text x="400" y="210" class="text">Process nums1</text>
  <text x="400" y="228" class="small-text">Add each [id, val] to Map</text>
  
  <!-- Process nums2 -->
  <rect x="325" y="270" width="150" height="80" class="box" />
  <text x="400" y="295" class="text">Process nums2</text>
  <text x="400" y="315" class="small-text">For each [id, val] pair</text>
  <text x="400" y="335" class="small-text">add to existing value or add new</text>
  
  <!-- Decision node -->
  <polygon points="400,380 450,420 400,460 350,420" class="decision" />
  <text x="400" y="410" class="text">id exists?</text>
  <text x="400" y="430" class="small-text">in Map</text>
  
  <!-- Add to existing -->
  <rect x="200" y="430" width="120" height="60" class="box" />
  <text x="260" y="455" class="text">Add value to</text>
  <text x="260" y="475" class="text">existing value</text>
  
  <!-- Add new -->
  <rect x="480" y="430" width="120" height="60" class="box" />
  <text x="540" y="455" class="text">Add new</text>
  <text x="540" y="475" class="text">id-value pair</text>
  
  <!-- Convert to result array -->
  <rect x="325" y="520" width="150" height="50" class="box" />
  <text x="400" y="545" class="text">Convert Map to Array</text>
  
  <!-- Sort result -->
  <rect x="325" y="600" width="150" height="50" class="box" />
  <text x="400" y="625" class="text">Sort by id</text>
  
  <!-- End node -->
  <rect x="350" y="680" width="100" height="50" class="start-end" />
  <text x="400" y="710" class="text">Return Result</text>
  
  <!-- Connect elements with arrows -->
  <path d="M 400 80 L 400 110" class="arrow" />
  <path d="M 400 160 L 400 190" class="arrow" />
  <path d="M 400 240 L 400 270" class="arrow" />
  <path d="M 400 350 L 400 380" class="arrow" />
  <path d="M 350 420 L 320 420 L 260 430" class="arrow" />
  <path d="M 450 420 L 480 420 L 540 430" class="arrow" />
  <path d="M 260 490 L 260 545 L 325 545" class="arrow" />
  <path d="M 540 490 L 540 545 L 475 545" class="arrow" />
  <path d="M 400 570 L 400 600" class="arrow" />
  <path d="M 400 650 L 400 680" class="arrow" />
  
  <!-- Labels for decision branches -->
  <text x="320" y="400" class="comment">Yes</text>
  <text x="470" y="400" class="comment">No</text>
  
  <!-- Time & Space complexity annotation -->
  <rect x="600" y="100" width="180" height="80" rx="5" ry="5" fill="#f8f8f8" stroke="#aaa" stroke-width="1" />
  <text x="690" y="125" class="text" font-weight="bold">Complexity</text>
  <text x="690" y="150" class="small-text">Time: O((n+m)log(n+m))</text>
  <text x="690" y="170" class="small-text">Space: O(n+m)</text>
</svg>
